<svg viewBox="0 -36 512.00054 512" xmlns="http://www.w3.org/2000/svg"><path d="m255.996094 379.996094c-5.519532 0-10 4.480468-10 10 0 5.519531 4.480468 10 10 10 5.523437 0 10-4.480469 10-10 0-5.519532-4.476563-10-10-10zm0 0"/><path d="m470.902344 30.738281c-4.191406-17.601562-20.039063-30.738281-38.90625-30.738281h-351.996094c-18.863281 0-34.707031 13.132812-38.902344 30.734375-22.679687 3.636719-37.640625 20.929687-40.644531 47.769531-.390625 3.511719-.746094 9.261719-.085937 12.726563.445312 57.539062 30.917968 116.820312 69.46875 158.875l8.851562 161.855469c0 .058593.003906.113281.007812.167968 1.121094 15.625 14.265626 27.867188 29.925782 27.867188h292.757812c16.222656 0 30.839844-12.761719 31.921875-27.867188.003907-.054687.007813-.113281.011719-.167968.847656-12.910157 7.5625-138.042969 8.320312-152.160157 40.609376-41.332031 68.960938-101.925781 70.351563-172.511719.519531-26.378906-12.765625-52.011718-41.082031-56.550781zm-390.902344-10.738281h351.996094c10.328125 0 18.855468 7.871094 19.890625 17.9375-.277344 1.347656-.285157 2.730469.003906 4.109375-1.03125 10.070313-9.5625 17.953125-19.894531 17.953125h-56c-16.542969 0-30 13.457031-30 30v80c0 5.511719-4.484375 10-10 10-5.511719 0-10-4.488281-10-10v-20c0-16.542969-13.457032-30-30-30-16.539063 0-30 13.457031-30 30v40c0 5.511719-4.484375 10-10 10-5.511719 0-10-4.488281-10-10v-60c0-16.542969-13.457032-30-29.996094-30-16.542969 0-30 13.457031-30 30v20c0 5.511719-4.488281 10-10 10-5.515625 0-10-4.488281-10-10v-60c0-16.542969-13.457031-30-30-30h-56c-10.140625 0-18.785156-7.609375-19.875-17.867188.300781-1.386718.324219-2.792968-.003906-4.285156 1.078125-10.019531 9.578125-17.847656 19.878906-17.847656zm260.367188 274.105469c-7.199219-9.972657-20.179688-14.777344-32.828126-11.203125-16.722656 4.707031-34.0625 7.09375-51.539062 7.09375s-34.816406-2.386719-51.542969-7.09375c-12.511719-3.523438-25.316406 1.113281-32.589843 10.875-27.417969-6.847656-56.363282-25.089844-82.460938-52.042969l-8.84375-161.734375h55.4375c5.515625 0 10 4.484375 10 10v59.996094c0 16.542968 13.457031 30 30 30s30-13.457032 30-30v-20c0-5.511719 4.484375-10 10-10 5.511719 0 10 4.488281 10 10v60c0 16.542968 13.457031 30 30 30 16.539062 0 30-13.457032 30-30v-40c0-5.511719 4.484375-10 10-10 5.511719 0 10 4.488281 10 10v20c0 16.542968 13.457031 30 29.996094 30 16.542968 0 30-13.457032 30-30v-79.996094c0-5.515625 4.488281-10 10-10h55.4375l-9.347656 170.976562c-23.996094 22.640626-52.070313 37.449219-81.71875 43.128907zm-153.855469 14.296875c1.613281-4.824219 6.917969-7.828125 12.527343-6.25 18.484376 5.207031 37.648438 7.84375 56.957032 7.84375s38.472656-2.636719 56.972656-7.847656c6.535156-1.847657 13.027344 2.644531 13.027344 9.457031 0 4.484375-2.769532 8.410156-6.734375 9.546875-20.480469 5.867187-41.765625 8.84375-63.265625 8.84375-21.496094 0-42.78125-2.976563-63.261719-8.84375-5.269531-1.507813-7.945313-7.660156-6.222656-12.75zm-166.496094-221.011719c-.179687-4.234375.660156-19.484375 8.996094-28.921875 3.296875-3.734375 7.441406-6.199219 12.53125-7.460938 2.863281 10.035157 9.558593 18.613282 18.707031 23.789063l7.753906 141.847656c-51.609375-68.644531-46.984375-125.542969-47.988281-129.253906zm381.359375 332.605469h-292.753906c-5.199219 0-9.566406-4.046875-9.972656-9.226563l-.589844-10.773437h120.589844c5.523437 0 10-4.476563 10-10 0-5.523438-4.476563-10-10-10h-121.683594l-5.96875-109.167969c24.09375 21.066406 49.964844 35.613281 75.058594 42.101563.554687 12.808593 9.089843 23.988281 21.171874 27.449218 22.273438 6.382813 45.410157 9.617188 68.769532 9.617188 23.363281 0 46.5-3.234375 68.773437-9.617188 11.9375-3.417968 20.417969-14.371094 21.15625-26.992187 26.605469-5.394531 51.964844-17.25 74.648438-34.820313l-5.546875 101.429688h-119.03125c-5.523438 0-10 4.480468-10 10 0 5.523437 4.476562 10 10 10h117.941406l-.589844 10.769531c-.386718 4.667969-6.289062 9.230469-11.972656 9.230469zm90.605469-332.605469c-.921875 3.40625 3.375 73.097656-48.578125 140.035156l8.347656-152.65625c8.976562-5.125 15.785156-13.628906 18.695312-23.765625 5.09375 1.257813 9.242188 3.726563 12.539063 7.464844 8.332031 9.4375 9.175781 24.6875 8.996094 28.921875zm0 0"/></svg>