<?xml version="1.0" encoding="iso-8859-1"?>
<!-- Generator: Adobe Illustrator 19.0.0, SVG Export Plug-In . SVG Version: 6.00 Build 0)  -->
<svg version="1.1" id="Capa_1" xmlns="http://www.w3.org/2000/svg" xmlns:xlink="http://www.w3.org/1999/xlink" x="0px" y="0px"
	 viewBox="0 0 512 512" style="enable-background:new 0 0 512 512;" xml:space="preserve">
<g>
	<g>
		<g>
			<path d="M508.877,429.792L379.866,300.78c2.611-4.708,5.198-9.435,7.408-14.311c4.875-10.729,0.125-23.375-10.604-28.25
				c-10.75-4.854-23.375-0.104-28.229,10.604c-4.5,9.906-10.083,19.438-16.583,28.333c-6.938,9.51-4.875,22.854,4.646,29.813
				c1.509,1.103,3.169,1.807,4.833,2.461v171.904c0,4.313,2.604,8.208,6.583,9.854c1.313,0.552,2.708,0.813,4.083,0.813
				c2.771,0,5.5-1.083,7.542-3.125L420.419,448h80.917c4.313,0,8.208-2.594,9.854-6.583
				C512.836,437.427,511.919,432.844,508.877,429.792z"/>
			<path d="M118.856,18.052c-12.646,5.75-24.729,12.813-35.896,20.99c-9.5,6.969-11.542,20.323-4.583,29.823
				c4.188,5.698,10.667,8.719,17.229,8.719c4.375,0,8.792-1.344,12.604-4.125c8.792-6.458,18.313-12.031,28.271-16.552
				c10.729-4.875,15.479-17.521,10.604-28.25C142.231,17.948,129.606,13.208,118.856,18.052z"/>
			<path d="M28.669,147.115c2.854,1.292,5.854,1.917,8.792,1.917c8.125,0,15.875-4.656,19.438-12.521
				c4.5-9.906,10.083-19.438,16.583-28.333c6.938-9.51,4.875-22.854-4.646-29.813c-9.542-6.969-22.854-4.854-29.812,4.646
				c-8.208,11.24-15.271,23.302-20.958,35.854C13.19,129.594,17.94,142.24,28.669,147.115z"/>
			<path d="M380.315,160.167c-11.708,1.354-20.083,11.948-18.729,23.646c0.708,6.188,1.083,12.479,1.083,18.854
				s-0.375,12.667-1.083,18.854c-1.354,11.698,7.021,22.292,18.729,23.646c0.833,0.104,1.667,0.146,2.479,0.146
				c10.688,0,19.917-8,21.167-18.875c0.917-7.792,1.375-15.729,1.375-23.771c0-8.042-0.458-15.979-1.375-23.771
				C402.627,167.198,392.19,158.719,380.315,160.167z"/>
			<path d="M331.856,108.177c6.5,8.896,12.083,18.427,16.583,28.333c3.563,7.865,11.313,12.521,19.438,12.521
				c2.938,0,5.938-0.625,8.792-1.917c10.729-4.875,15.479-17.521,10.604-28.25c-5.688-12.552-12.75-24.615-20.958-35.854
				c-6.958-9.5-20.292-11.615-29.813-4.646C326.981,85.323,324.919,98.667,331.856,108.177z"/>
			<path d="M268.856,56.906c9.958,4.521,19.479,10.094,28.271,16.552c3.813,2.781,8.229,4.125,12.604,4.125
				c6.563,0,13.042-3.021,17.229-8.719c6.958-9.5,4.917-22.854-4.583-29.823c-11.167-8.177-23.25-15.24-35.896-20.99
				c-10.75-4.844-23.396-0.104-28.229,10.604C253.377,39.385,258.127,52.031,268.856,56.906z"/>
			<path d="M226.481,1.385C218.648,0.469,210.711,0,202.669,0s-15.979,0.469-23.813,1.385
				c-11.688,1.375-20.063,11.979-18.688,23.677c1.271,10.854,10.5,18.844,21.167,18.844c0.833,0,1.667-0.042,2.521-0.146
				c6.167-0.729,12.438-1.094,18.813-1.094s12.646,0.365,18.813,1.094c0.854,0.104,1.688,0.146,2.521,0.146
				c10.667,0,19.896-7.99,21.167-18.844C246.544,13.365,238.169,2.76,226.481,1.385z"/>
			<path d="M25.023,245.167c11.708-1.354,20.083-11.948,18.729-23.646c-0.708-6.188-1.083-12.479-1.083-18.854
				s0.375-12.667,1.083-18.854c1.354-11.698-7.021-22.292-18.729-23.646c-11.729-1.427-22.292,7.031-23.646,18.729
				c-0.917,7.792-1.375,15.729-1.375,23.771c0,8.042,0.458,15.979,1.375,23.771c1.25,10.875,10.479,18.875,21.167,18.875
				C23.356,245.313,24.19,245.271,25.023,245.167z"/>
			<path d="M136.481,348.427c-9.958-4.521-19.479-10.094-28.271-16.552c-9.521-6.958-22.854-4.906-29.833,4.594
				c-6.958,9.5-4.917,22.854,4.583,29.823c11.167,8.177,23.25,15.24,35.896,20.99c2.854,1.292,5.854,1.917,8.792,1.917
				c8.125,0,15.875-4.656,19.438-12.521C151.961,365.948,147.211,353.302,136.481,348.427z"/>
			<path d="M73.481,297.156c-6.5-8.896-12.083-18.427-16.583-28.333c-4.833-10.708-17.479-15.458-28.229-10.604
				c-10.729,4.875-15.479,17.521-10.604,28.25c5.688,12.552,12.75,24.615,20.958,35.854c4.188,5.719,10.667,8.75,17.25,8.75
				c4.354,0,8.771-1.333,12.562-4.104C78.356,320.01,80.419,306.667,73.481,297.156z"/>
			<path d="M297.127,331.875c-8.792,6.458-18.313,12.031-28.271,16.552c-10.729,4.875-15.479,17.521-10.604,28.25
				c3.563,7.865,11.313,12.521,19.438,12.521c2.938,0,5.938-0.625,8.792-1.917c12.646-5.75,24.729-12.813,35.896-20.99
				c9.5-6.969,11.542-20.323,4.583-29.823C319.961,326.969,306.648,324.906,297.127,331.875z"/>
			<path d="M221.481,361.573c-6.167,0.729-12.438,1.094-18.813,1.094s-12.646-0.365-18.813-1.094
				c-11.833-1.49-22.313,7-23.688,18.698c-1.375,11.698,7,22.302,18.688,23.677c7.833,0.917,15.771,1.385,23.813,1.385
				s15.979-0.469,23.813-1.385c11.688-1.375,20.063-11.979,18.688-23.677C243.794,368.563,233.211,360.052,221.481,361.573z"/>
		</g>
	</g>
</g>
<g>
</g>
<g>
</g>
<g>
</g>
<g>
</g>
<g>
</g>
<g>
</g>
<g>
</g>
<g>
</g>
<g>
</g>
<g>
</g>
<g>
</g>
<g>
</g>
<g>
</g>
<g>
</g>
<g>
</g>
</svg>
