<?xml version="1.0" encoding="iso-8859-1"?>
<!-- Generator: Adobe Illustrator 19.0.0, SVG Export Plug-In . SVG Version: 6.00 Build 0)  -->
<svg version="1.1" id="Capa_1" xmlns="http://www.w3.org/2000/svg" xmlns:xlink="http://www.w3.org/1999/xlink" x="0px" y="0px"
	 viewBox="0 0 512.015 512.015" style="enable-background:new 0 0 512.015 512.015;" xml:space="preserve">
<g>
	<g>
		<path d="M103.531,344.477c-4.16-4.16-10.923-4.16-15.083,0c-4.16,4.16-4.16,10.923,0,15.083
			c45.803,45.781,45.803,88.448,0,134.251c-4.16,4.16-4.16,10.923,0,15.083c2.091,2.069,4.821,3.115,7.552,3.115
			s5.461-1.045,7.531-3.115C157.312,455.111,157.312,398.258,103.531,344.477z"/>
	</g>
</g>
<g>
	<g>
		<path d="M256,0.007C114.837,0.007,0,76.573,0,170.674c0,48.448,30.997,94.741,85.077,127.061c2.197,1.301,4.779,1.749,7.296,1.344
			c8.789-1.557,18.261,2.965,22.549,11.328c1.131,2.261,3.051,4.032,5.397,5.013c40.789,16.96,87.701,25.92,135.68,25.92
			c32.213,0,63.851-4.011,94.08-11.925c2.944-0.789,5.44-2.795,6.805-5.525c1.387-2.731,1.515-5.931,0.384-8.768l-26.901-67.221
			l87.872,48.811c3.349,1.877,7.467,1.792,10.731-0.213C481.749,264.306,512,218.439,512,170.674
			C512,76.573,397.163,0.007,256,0.007z M423.083,275.015l-108.587-60.331c-3.925-2.197-8.832-1.664-12.224,1.323
			c-3.392,2.987-4.544,7.787-2.859,11.968l33.472,83.669c-66.475,14.869-141.248,9.408-201.067-14.571
			c-8.384-13.163-23.744-21.099-38.955-19.584c-45.525-28.203-71.531-66.965-71.531-106.816
			c0-82.347,105.28-149.333,234.667-149.333s234.667,66.987,234.667,149.333C490.667,209.885,466.731,246.749,423.083,275.015z"/>
	</g>
</g>
<g>
	<g>
		<path d="M96,277.341c-23.531,0-42.667,19.136-42.667,42.667S72.469,362.674,96,362.674c23.531,0,42.667-19.136,42.667-42.667
			C138.667,296.477,119.531,277.341,96,277.341z M96,341.341c-11.755,0-21.333-9.579-21.333-21.333S84.245,298.674,96,298.674
			c11.755,0,21.333,9.579,21.333,21.333S107.755,341.341,96,341.341z"/>
	</g>
</g>
<g>
	<g>
		<path d="M506.517,321.351l-192-106.667c-3.925-2.197-8.832-1.664-12.224,1.323c-3.392,2.987-4.544,7.787-2.859,11.968
			l85.333,213.333c1.6,4.011,5.44,6.656,9.771,6.699c0.043,0,0.085,0,0.128,0c4.267,0,8.128-2.539,9.813-6.485l30.315-70.741
			l70.741-30.315c3.755-1.6,6.251-5.205,6.464-9.259C512.213,327.154,510.08,323.335,506.517,321.351z M422.464,352.861
			c-2.517,1.088-4.544,3.093-5.611,5.611l-21.845,50.987l-64.64-161.557l146.773,81.515L422.464,352.861z"/>
	</g>
</g>
<g>
</g>
<g>
</g>
<g>
</g>
<g>
</g>
<g>
</g>
<g>
</g>
<g>
</g>
<g>
</g>
<g>
</g>
<g>
</g>
<g>
</g>
<g>
</g>
<g>
</g>
<g>
</g>
<g>
</g>
</svg>
