<svg id="Layer_1" enable-background="new 0 0 512.857 512.857" height="512" viewBox="0 0 512.857 512.857" width="512" xmlns="http://www.w3.org/2000/svg"><path d="m512.445 0-235.1 122.115-276.932-121.779 97.462 301.995c-16.507 10.701-27.459 29.275-27.459 50.369 0 33.084 26.916 60 60 60 7.527 0 14.766-1.134 21.63-3.044 3.444 4.59 7.37 13.093 7.37 28.044 0 25.437-35.48 36.76-35.747 36.843l11.494 38.313c1.602-.481 16.076-4.998 30.831-15.474 21.865-15.524 33.422-36.162 33.422-59.683 0-19.833-4.884-34.967-11.464-46.071 10.146-7.399 18.019-15.168 22.883-20.443h250.487zm-402.029 352.701c0-11.028 8.972-20 20-20 15.314 0 31.084 10.385 42.075 19.992-10.952 9.544-26.795 20.008-42.075 20.008-11.029 0-20-8.972-20-20zm97.548-21.514c-12.756-13.105-38.931-35.477-71.077-38.21l-71.056-220.178 212.95 93.644 183.488-95.307-35.817 260.051z"/></svg>