<?xml version="1.0"?>
<svg xmlns="http://www.w3.org/2000/svg" width="512" height="512" viewBox="0 0 128 128"><g><path d="M24.127,0H1.75A1.751,1.751,0,0,0,0,1.747V24.123a1.75,1.75,0,0,0,1.75,1.75H24.127a1.75,1.75,0,0,0,1.75-1.75V1.747A1.751,1.751,0,0,0,24.127,0Zm-1.75,22.376H3.5V3.5H22.377Z"/><path d="M126.25,0H103.873a1.751,1.751,0,0,0-1.75,1.75V24.123a1.75,1.75,0,0,0,1.75,1.75H126.25a1.75,1.75,0,0,0,1.75-1.75V1.747A1.751,1.751,0,0,0,126.25,0ZM124.5,22.373H105.623V3.5H124.5Z"/><path d="M24.127,102.121H1.75A1.75,1.75,0,0,0,0,103.871v22.376A1.751,1.751,0,0,0,1.75,128H24.127a1.751,1.751,0,0,0,1.75-1.75V103.871A1.75,1.75,0,0,0,24.127,102.121ZM22.377,124.5H3.5V105.621H22.377Z"/><path d="M126.25,102.121H103.873a1.75,1.75,0,0,0-1.75,1.75v22.376a1.751,1.751,0,0,0,1.75,1.75H126.25a1.751,1.751,0,0,0,1.75-1.75V103.871A1.75,1.75,0,0,0,126.25,102.121ZM124.5,124.5H105.623V105.621H124.5Z"/><path d="M38.134,11.185h-4a1.75,1.75,0,0,0,0,3.5h4a1.75,1.75,0,0,0,0-3.5Z"/><path d="M67.695,11.185h-7.39a1.75,1.75,0,1,0,0,3.5h7.39a1.75,1.75,0,0,0,0-3.5Z"/><path d="M52.915,11.185H45.524a1.75,1.75,0,0,0,0,3.5h7.391a1.75,1.75,0,0,0,0-3.5Z"/><path d="M82.475,11.185h-7.39a1.75,1.75,0,0,0,0,3.5h7.39a1.75,1.75,0,0,0,0-3.5Z"/><path d="M93.866,11.185h-4a1.75,1.75,0,0,0,0,3.5h4a1.75,1.75,0,0,0,0-3.5Z"/><path d="M38.134,113.309h-4a1.75,1.75,0,1,0,0,3.5h4a1.75,1.75,0,0,0,0-3.5Z"/><path d="M52.915,113.309H45.524a1.75,1.75,0,0,0,0,3.5h7.391a1.75,1.75,0,0,0,0-3.5Z"/><path d="M67.695,113.309h-7.39a1.75,1.75,0,0,0,0,3.5h7.39a1.75,1.75,0,0,0,0-3.5Z"/><path d="M82.475,113.309h-7.39a1.75,1.75,0,0,0,0,3.5h7.39a1.75,1.75,0,0,0,0-3.5Z"/><path d="M93.866,113.309h-4a1.75,1.75,0,0,0,0,3.5h4a1.75,1.75,0,1,0,0-3.5Z"/><path d="M115.062,39.881a1.75,1.75,0,0,0,1.75-1.75v-4a1.75,1.75,0,1,0-3.5,0v4A1.75,1.75,0,0,0,115.062,39.881Z"/><path d="M113.312,52.912a1.75,1.75,0,0,0,3.5,0V45.521a1.75,1.75,0,0,0-3.5,0Z"/><path d="M113.312,82.472a1.75,1.75,0,0,0,3.5,0v-7.39a1.75,1.75,0,0,0-3.5,0Z"/><path d="M113.312,67.692a1.75,1.75,0,0,0,3.5,0V60.3a1.75,1.75,0,0,0-3.5,0Z"/><path d="M113.312,93.863a1.75,1.75,0,0,0,3.5,0v-4a1.75,1.75,0,0,0-3.5,0Z"/><path d="M12.938,39.881a1.75,1.75,0,0,0,1.75-1.75v-4a1.75,1.75,0,0,0-3.5,0v4A1.75,1.75,0,0,0,12.938,39.881Z"/><path d="M11.188,52.912a1.75,1.75,0,0,0,3.5,0V45.521a1.75,1.75,0,0,0-3.5,0Z"/><path d="M11.188,67.692a1.75,1.75,0,0,0,3.5,0V60.3a1.75,1.75,0,1,0-3.5,0Z"/><path d="M11.188,82.472a1.75,1.75,0,0,0,3.5,0v-7.39a1.75,1.75,0,0,0-3.5,0Z"/><path d="M11.188,93.863a1.75,1.75,0,0,0,3.5,0v-4a1.75,1.75,0,0,0-3.5,0Z"/></g></svg>
