<svg id="Capa_1" enable-background="new 0 0 511.998 511.998" height="512" viewBox="0 0 511.998 511.998" width="512" xmlns="http://www.w3.org/2000/svg"><g><path d="m122.78 511.998h222.439c8.368 0 15.176-6.808 15.176-15.177v-16.067c0-7.221-5.074-13.27-11.841-14.795v-114.888c0-4.142-3.357-7.5-7.5-7.5s-7.5 3.358-7.5 7.5v47.558h-199.109v-130.115h82.055c4.143 0 7.5-3.358 7.5-7.5s-3.357-7.5-7.5-7.5h-82.055v-51.95h199.109v51.95h-82.054c-4.143 0-7.5 3.358-7.5 7.5s3.357 7.5 7.5 7.5h82.055v47.558c0 4.142 3.357 7.5 7.5 7.5s7.5-3.358 7.5-7.5v-114.889c6.767-1.525 11.841-7.574 11.841-14.795v-16.068c0-8.292-6.687-15.043-14.951-15.165-9.799-36.148-41.677-62.348-79.076-64.998 0-27.964 0-13.056 0-30.4h.28c4.143 0 7.5-3.358 7.5-7.5s-3.357-7.5-7.5-7.5h-.28c0-9.265 0-15.691 0-25.105-.001-10.836-8.817-19.652-19.653-19.652h-25.435c-10.836 0-19.651 8.816-19.651 19.652v70.505c-37.399 2.649-69.278 28.85-79.076 64.998-8.263.122-14.951 6.873-14.951 15.165v16.067c0 7.221 5.074 13.27 11.842 14.795v264.776c-6.767 1.525-11.842 7.574-11.842 14.795v16.067c0 8.37 6.809 15.178 15.177 15.178zm222.615-15.177c0 .098-.079.177-.176.177h-222.439c-.098 0-.177-.079-.177-.177v-16.067c0-.097.079-.176.177-.176h222.439c.097 0 .176.079.176.176zm-11.841-83.192v51.949h-199.109v-51.949zm-210.774-227.065c-.098 0-.177-.079-.177-.176v-16.068c0-.097.079-.176.177-.176h222.439c.097 0 .176.079.176.176v16.067c0 .097-.079.176-.176.176-4.442.001-205.401.001-222.439.001zm128.588-141.738c-3.686.474-6.536 3.616-6.536 7.431s2.85 6.957 6.536 7.431v3.794h-4.798c-2.748 0-5.07-2.322-5.07-5.071v-12.308c0-2.749 2.322-5.071 5.07-5.071h4.798zm-34.738-25.174c0-2.565 2.087-4.652 4.651-4.652h25.435c2.564 0 4.651 2.087 4.651 4.652v6.38h-4.798c-11.066 0-20.07 9.004-20.07 20.071v12.309c0 11.067 9.004 20.071 20.07 20.071h4.798v11.433h-34.737zm-7.5 85.264h49.737c34.554 0 61.424 21.628 70.934 50.228h-191.604c9.442-28.395 36.162-50.228 70.933-50.228z"/><path d="m294.118 59.958h14.316c4.143 0 7.5-3.358 7.5-7.5s-3.357-7.5-7.5-7.5h-14.316c-4.143 0-7.5 3.358-7.5 7.5s3.357 7.5 7.5 7.5z"/><path d="m352.665 44.958h-14.316c-4.143 0-7.5 3.358-7.5 7.5s3.357 7.5 7.5 7.5h14.316c4.143 0 7.5-3.358 7.5-7.5s-3.358-7.5-7.5-7.5z"/><path d="m396.895 44.958h-14.317c-4.143 0-7.5 3.358-7.5 7.5s3.357 7.5 7.5 7.5h14.317c4.143 0 7.5-3.358 7.5-7.5s-3.357-7.5-7.5-7.5z"/><path d="m295.427 34.635 14.097-2.5c4.078-.723 6.799-4.616 6.075-8.694s-4.611-6.798-8.694-6.075l-14.097 2.5c-4.078.723-6.799 4.616-6.075 8.694.722 4.076 4.612 6.799 8.694 6.075z"/><path d="m338.978 26.913 14.097-2.5c4.078-.723 6.799-4.616 6.075-8.694-.723-4.078-4.615-6.797-8.694-6.075l-14.097 2.5c-4.078.723-6.799 4.616-6.075 8.694.723 4.081 4.619 6.799 8.694 6.075z"/><path d="m382.529 19.189 14.097-2.5c4.078-.723 6.799-4.616 6.075-8.694-.723-4.079-4.61-6.797-8.694-6.075l-14.097 2.5c-4.078.723-6.799 4.616-6.075 8.694.722 4.076 4.612 6.799 8.694 6.075z"/><path d="m309.524 72.781-14.097-2.5c-4.083-.721-7.971 1.998-8.694 6.075-.724 4.079 1.997 7.971 6.075 8.694l14.097 2.5c4.083.724 7.972-2.001 8.694-6.075.724-4.079-1.997-7.971-6.075-8.694z"/><path d="m336.359 92.773 14.097 2.5c4.083.724 7.972-2.001 8.694-6.075.724-4.079-1.997-7.971-6.075-8.694l-14.097-2.5c-4.078-.722-7.972 1.998-8.694 6.075-.724 4.079 1.997 7.971 6.075 8.694z"/><path d="m379.91 100.496 14.097 2.5c4.083.724 7.972-2.001 8.694-6.075.724-4.079-1.997-7.971-6.075-8.694l-14.097-2.5c-4.082-.722-7.971 1.998-8.694 6.075-.724 4.078 1.997 7.971 6.075 8.694z"/></g></svg>