<?xml version="1.0" encoding="iso-8859-1"?>
<!-- Generator: Adobe Illustrator 19.0.0, SVG Export Plug-In . SVG Version: 6.00 Build 0)  -->
<svg version="1.1" id="Capa_1" xmlns="http://www.w3.org/2000/svg" xmlns:xlink="http://www.w3.org/1999/xlink" x="0px" y="0px"
	 viewBox="0 0 512 512" style="enable-background:new 0 0 512 512;" xml:space="preserve">
<g>
	<g>
		<path d="M406.008,330.99h-75.004v-15.001c0-18.747-11.527-34.847-27.862-41.602c5.68-34.083,14.793-66.006,44.132-117.464
			c8.982-15.755,13.73-33.717,13.73-51.945c0-58.077-47.153-105.413-106.006-104.975C202.756,0.392,161.71,38.51,152.952,84.444
			c-5.419,28.42,0.505,56.93,16.685,80.278c22.19,32.025,32.881,71.63,39.22,109.665c-16.335,6.755-27.862,22.855-27.862,41.602
			v15.001h-75.004c-41.357,0-75.004,33.647-75.004,75.004v31.002c0,8.284,6.716,15.001,15.001,15.001h15.001v15.001
			c0,24.814,20.188,45.002,45.002,45.002h300.016c24.814,0,45.003-20.188,45.003-45.002v-15.001h15.001
			c8.284,0,15.001-6.716,15.001-15.001v-31.002C481.012,364.637,447.365,330.99,406.008,330.99z M194.298,147.636
			c-11.557-16.679-15.774-37.125-11.875-57.572c6.11-32.042,35.521-60.53,74.576-60.099c41.12,0.454,74.004,34.139,74.004,75.013
			c0,13.026-3.386,25.849-9.792,37.085c-31.333,54.955-41.385,89.729-47.919,128.924h-34.588
			C231.48,227.617,219.612,184.169,194.298,147.636z M301.002,315.989v15.001h-90.005v-15.001c0-8.271,6.729-15.001,15.001-15.001
			h60.003C294.273,300.989,301.002,307.718,301.002,315.989z M421.009,466.998c0,8.271-6.729,15.001-15.001,15.001H105.992
			c-8.271,0-15.001-6.729-15.001-15.001v-15.001h330.018V466.998z M451.011,421.995c-17.298,0-358.287,0-390.021,0v-16.001
			c0-24.814,20.188-45.002,45.002-45.002c7.34,0,265.422,0,300.016,0c24.814,0,45.003,20.188,45.003,45.002V421.995z"/>
	</g>
</g>
<g>
</g>
<g>
</g>
<g>
</g>
<g>
</g>
<g>
</g>
<g>
</g>
<g>
</g>
<g>
</g>
<g>
</g>
<g>
</g>
<g>
</g>
<g>
</g>
<g>
</g>
<g>
</g>
<g>
</g>
</svg>
